<svg xmlns="http://www.w3.org/2000/svg" xmlns:xlink="http://www.w3.org/1999/xlink" width="2000" zoomAndPan="magnify" viewBox="0 0 1500 1499.999933" height="2000" preserveAspectRatio="xMidYMid meet" version="1.0"><defs><clipPath id="7a337f4fe3"><path d="M 0 451 L 248 451 L 248 1226.25 L 0 1226.25 Z M 0 451 " clip-rule="nonzero"/></clipPath><clipPath id="cb9ceeab70"><path d="M 1252.035156 451.183594 L 1499.96875 451.183594 L 1499.96875 1226.214844 L 1252.035156 1226.214844 Z M 1252.035156 451.183594 " clip-rule="nonzero"/></clipPath><clipPath id="ecfb0f171d"><path d="M 633 273.75 L 867 273.75 L 867 529 L 633 529 Z M 633 273.75 " clip-rule="nonzero"/></clipPath><clipPath id="c50192d8ef"><path d="M 0 451 L 248 451 L 248 1226.25 L 0 1226.25 Z M 0 451 " clip-rule="nonzero"/></clipPath><clipPath id="1de6bb9871"><path d="M 1252.035156 451.183594 L 1499.96875 451.183594 L 1499.96875 1226.214844 L 1252.035156 1226.214844 Z M 1252.035156 451.183594 " clip-rule="nonzero"/></clipPath><clipPath id="a878a4d181"><path d="M 633 273.75 L 867 273.75 L 867 529 L 633 529 Z M 633 273.75 " clip-rule="nonzero"/></clipPath></defs><path fill="#C9A96E" d="M 511.425781 708.082031 C 493.03125 708.082031 475.882812 711.5625 459.980469 718.519531 C 444.070312 725.476562 430.28125 734.859375 418.605469 746.660156 C 406.921875 758.464844 397.664062 772.324219 390.835938 788.21875 C 384.003906 804.128906 380.582031 821.027344 380.582031 838.917969 C 380.582031 856.808594 384.003906 873.710938 390.835938 889.613281 C 397.664062 905.515625 406.921875 919.375 418.605469 931.175781 C 430.28125 942.980469 444.070312 952.367188 459.980469 959.320312 C 475.882812 966.277344 493.03125 969.753906 511.425781 969.753906 C 529.5625 969.753906 546.585938 966.277344 562.492188 959.320312 C 578.390625 952.367188 592.246094 942.917969 604.054688 930.988281 C 615.855469 919.0625 625.171875 905.210938 632.011719 889.425781 C 638.839844 873.644531 642.261719 856.808594 642.261719 838.917969 C 642.261719 821.027344 638.839844 804.195312 632.011719 788.410156 C 625.171875 772.628906 615.855469 758.773438 604.054688 746.847656 C 592.246094 734.917969 578.390625 725.476562 562.492188 718.519531 C 546.585938 711.5625 529.5625 708.082031 511.425781 708.082031 Z M 720.164062 838.917969 C 720.164062 897.066406 699.785156 946.269531 659.039062 986.527344 C 617.777344 1027.285156 568.578125 1047.664062 511.425781 1047.664062 C 453.765625 1047.664062 404.558594 1027.285156 363.8125 986.527344 C 323.050781 945.777344 302.675781 896.570312 302.675781 838.917969 C 302.675781 781.269531 323.050781 732.066406 363.8125 691.304688 C 404.558594 650.550781 453.765625 630.171875 511.425781 630.171875 C 568.578125 630.171875 617.777344 650.550781 659.039062 691.304688 C 679.414062 711.683594 694.628906 734.175781 704.695312 758.773438 C 714.761719 783.378906 719.914062 810.09375 720.164062 838.917969 " fill-opacity="1" fill-rule="nonzero"/><path fill="#C9A96E" d="M 988.546875 708.082031 C 970.160156 708.082031 953.011719 711.5625 937.113281 718.519531 C 921.203125 725.476562 907.410156 734.859375 895.734375 746.660156 C 884.050781 758.464844 874.792969 772.324219 867.964844 788.21875 C 861.125 804.128906 857.71875 821.027344 857.71875 838.917969 C 857.71875 856.808594 861.125 873.710938 867.964844 889.613281 C 874.792969 905.515625 884.050781 919.375 895.734375 931.175781 C 907.410156 942.980469 921.203125 952.367188 937.113281 959.320312 C 953.011719 966.277344 970.160156 969.753906 988.546875 969.753906 C 1006.683594 969.753906 1023.703125 966.277344 1039.625 959.320312 C 1055.519531 952.367188 1069.378906 942.917969 1081.183594 930.988281 C 1092.984375 919.0625 1102.304688 905.210938 1109.132812 889.425781 C 1115.960938 873.644531 1119.390625 856.808594 1119.390625 838.917969 C 1119.390625 821.027344 1115.960938 804.195312 1109.132812 788.410156 C 1102.304688 772.628906 1092.984375 758.773438 1081.183594 746.847656 C 1069.378906 734.917969 1055.519531 725.476562 1039.625 718.519531 C 1023.703125 711.5625 1006.683594 708.082031 988.546875 708.082031 Z M 1197.296875 838.917969 C 1197.296875 897.066406 1176.914062 946.269531 1136.160156 986.527344 C 1094.910156 1027.285156 1045.703125 1047.664062 988.546875 1047.664062 C 930.890625 1047.664062 881.683594 1027.285156 840.949219 986.527344 C 800.183594 945.777344 779.808594 896.570312 779.808594 838.917969 C 779.808594 781.269531 800.183594 732.066406 840.949219 691.304688 C 881.683594 650.550781 930.890625 630.171875 988.546875 630.171875 C 1045.703125 630.171875 1094.910156 650.550781 1136.160156 691.304688 C 1156.535156 711.683594 1171.757812 734.175781 1181.824219 758.773438 C 1191.886719 783.378906 1197.035156 810.09375 1197.296875 838.917969 " fill-opacity="1" fill-rule="nonzero"/><g clip-path="url(#7a337f4fe3)"><path fill="#ffffff" d="M 208.746094 451.621094 C 219.925781 451.621094 229.179688 455.414062 236.511719 462.992188 C 243.84375 470.578125 247.511719 479.828125 247.511719 490.761719 C 247.511719 501.949219 243.84375 511.207031 236.511719 518.53125 C 229.179688 525.867188 219.925781 529.53125 208.746094 529.53125 C 177.929688 529.53125 162.523438 544.9375 162.523438 575.753906 L 162.523438 753.925781 C 162.523438 789.714844 154.316406 818.046875 137.917969 838.917969 C 154.316406 859.792969 162.523438 888.125 162.523438 923.90625 L 162.523438 1102.082031 C 162.523438 1132.898438 177.929688 1148.3125 208.746094 1148.3125 C 219.925781 1148.3125 229.179688 1151.96875 236.511719 1159.308594 C 243.84375 1166.632812 247.511719 1175.886719 247.511719 1187.078125 C 247.511719 1198.257812 243.84375 1207.585938 236.511719 1215.035156 C 229.179688 1222.484375 219.925781 1226.214844 208.746094 1226.214844 C 125.992188 1226.214844 84.617188 1184.835938 84.617188 1102.082031 L 84.617188 923.90625 C 84.617188 893.097656 69.328125 877.683594 38.765625 877.683594 C 27.585938 877.683594 18.324219 874.019531 10.992188 866.6875 C 3.660156 859.363281 0 850.101562 0 838.917969 C 0 827.738281 3.660156 818.476562 10.992188 811.148438 C 18.324219 803.824219 27.585938 800.152344 38.765625 800.152344 C 69.328125 800.152344 84.617188 784.742188 84.617188 753.925781 L 84.617188 575.753906 C 84.617188 492.996094 125.992188 451.621094 208.746094 451.621094 " fill-opacity="1" fill-rule="nonzero"/></g><g clip-path="url(#cb9ceeab70)"><path fill="#ffffff" d="M 1415.359375 575.753906 L 1415.359375 753.925781 C 1415.359375 784.742188 1430.640625 800.152344 1461.199219 800.152344 C 1472.394531 800.152344 1481.644531 803.824219 1488.972656 811.148438 C 1496.308594 818.476562 1499.96875 827.738281 1499.96875 838.917969 C 1499.96875 850.101562 1496.308594 859.363281 1488.972656 866.6875 C 1481.644531 874.019531 1472.394531 877.683594 1461.199219 877.683594 C 1430.640625 877.683594 1415.359375 893.097656 1415.359375 923.90625 L 1415.359375 1102.082031 C 1415.359375 1184.835938 1373.984375 1226.214844 1291.222656 1226.214844 C 1280.042969 1226.214844 1270.785156 1222.484375 1263.453125 1215.035156 C 1256.128906 1207.585938 1252.472656 1198.257812 1252.472656 1187.078125 C 1252.472656 1175.886719 1256.128906 1166.632812 1263.453125 1159.308594 C 1270.785156 1151.96875 1280.042969 1148.3125 1291.222656 1148.3125 C 1322.050781 1148.3125 1337.457031 1132.898438 1337.457031 1102.082031 L 1337.457031 923.90625 C 1337.457031 888.125 1345.652344 859.792969 1362.054688 838.917969 C 1345.652344 818.046875 1337.457031 789.714844 1337.457031 753.925781 L 1337.457031 575.753906 C 1337.457031 544.9375 1322.050781 529.53125 1291.222656 529.53125 C 1280.042969 529.53125 1270.785156 525.867188 1263.453125 518.53125 C 1256.128906 511.207031 1252.472656 501.949219 1252.472656 490.761719 C 1252.472656 479.828125 1256.128906 470.578125 1263.453125 462.992188 C 1270.785156 455.414062 1280.042969 451.621094 1291.222656 451.621094 C 1373.984375 451.621094 1415.359375 492.996094 1415.359375 575.753906 " fill-opacity="1" fill-rule="nonzero"/></g><g clip-path="url(#ecfb0f171d)"><path fill="#ffffff" d="M 866.664062 482.527344 C 866.664062 488.992188 865.410156 495.015625 862.929688 500.609375 C 860.441406 506.199219 857.15625 511.109375 853.058594 515.332031 C 848.957031 519.558594 844.035156 522.847656 838.328125 525.210938 C 832.605469 527.578125 826.652344 528.75 820.4375 528.75 C 808.996094 528.75 799.191406 524.777344 790.988281 516.824219 C 782.785156 508.875 776.078125 499.117188 770.855469 487.5625 C 765.640625 476.007812 761.847656 464.074219 759.492188 451.777344 C 757.128906 439.476562 755.949219 427.980469 755.949219 417.296875 C 755.949219 373.308594 774.710938 328.832031 812.230469 283.847656 C 818.941406 277.136719 826.523438 273.785156 834.980469 273.785156 C 843.65625 273.785156 851.125 276.890625 857.339844 283.105469 C 863.542969 289.316406 866.664062 296.773438 866.664062 305.472656 C 866.664062 309.699219 865.78125 314.039062 864.054688 318.511719 C 852.859375 345.855469 847.277344 371.820312 847.277344 396.425781 C 847.277344 419.785156 852.359375 442.398438 862.558594 464.265625 C 865.292969 470.476562 866.664062 476.5625 866.664062 482.527344 Z M 744.023438 482.527344 C 744.023438 488.992188 742.777344 495.015625 740.296875 500.609375 C 737.804688 506.199219 734.515625 511.109375 730.414062 515.332031 C 726.320312 519.558594 721.40625 522.847656 715.695312 525.210938 C 709.972656 527.578125 704.011719 528.75 697.804688 528.75 C 686.363281 528.75 676.554688 524.777344 668.355469 516.824219 C 660.15625 508.875 653.445312 499.117188 648.222656 487.5625 C 643.003906 476.007812 639.214844 464.074219 636.851562 451.777344 C 634.492188 439.476562 633.316406 427.980469 633.316406 417.296875 C 633.316406 373.308594 652.070312 328.832031 689.597656 283.847656 C 696.304688 277.136719 703.886719 273.785156 712.335938 273.785156 C 721.03125 273.785156 728.488281 276.890625 734.703125 283.105469 C 740.914062 289.316406 744.023438 296.773438 744.023438 305.472656 C 744.023438 309.699219 743.152344 314.039062 741.414062 318.511719 C 730.234375 345.855469 724.636719 371.820312 724.636719 396.425781 C 724.636719 419.785156 729.730469 442.398438 739.921875 464.265625 C 742.652344 470.476562 744.023438 476.5625 744.023438 482.527344 " fill-opacity="1" fill-rule="nonzero"/></g><path fill="#C9A96E" d="M 511.425781 708.082031 C 493.03125 708.082031 475.882812 711.5625 459.980469 718.519531 C 444.070312 725.476562 430.28125 734.859375 418.605469 746.660156 C 406.921875 758.464844 397.664062 772.324219 390.835938 788.21875 C 384.003906 804.128906 380.582031 821.027344 380.582031 838.917969 C 380.582031 856.808594 384.003906 873.710938 390.835938 889.613281 C 397.664062 905.515625 406.921875 919.375 418.605469 931.175781 C 430.28125 942.980469 444.070312 952.367188 459.980469 959.320312 C 475.882812 966.277344 493.03125 969.753906 511.425781 969.753906 C 529.5625 969.753906 546.585938 966.277344 562.492188 959.320312 C 578.390625 952.367188 592.246094 942.917969 604.054688 930.988281 C 615.855469 919.0625 625.171875 905.210938 632.011719 889.425781 C 638.839844 873.644531 642.261719 856.808594 642.261719 838.917969 C 642.261719 821.027344 638.839844 804.195312 632.011719 788.410156 C 625.171875 772.628906 615.855469 758.773438 604.054688 746.847656 C 592.246094 734.917969 578.390625 725.476562 562.492188 718.519531 C 546.585938 711.5625 529.5625 708.082031 511.425781 708.082031 Z M 720.164062 838.917969 C 720.164062 897.066406 699.785156 946.269531 659.039062 986.527344 C 617.777344 1027.285156 568.578125 1047.664062 511.425781 1047.664062 C 453.765625 1047.664062 404.558594 1027.285156 363.8125 986.527344 C 323.050781 945.777344 302.675781 896.570312 302.675781 838.917969 C 302.675781 781.269531 323.050781 732.066406 363.8125 691.304688 C 404.558594 650.550781 453.765625 630.171875 511.425781 630.171875 C 568.578125 630.171875 617.777344 650.550781 659.039062 691.304688 C 679.414062 711.683594 694.628906 734.175781 704.695312 758.773438 C 714.761719 783.378906 719.914062 810.09375 720.164062 838.917969 " fill-opacity="1" fill-rule="nonzero"/><path fill="#C9A96E" d="M 988.546875 708.082031 C 970.160156 708.082031 953.011719 711.5625 937.113281 718.519531 C 921.203125 725.476562 907.410156 734.859375 895.734375 746.660156 C 884.050781 758.464844 874.792969 772.324219 867.964844 788.21875 C 861.125 804.128906 857.71875 821.027344 857.71875 838.917969 C 857.71875 856.808594 861.125 873.710938 867.964844 889.613281 C 874.792969 905.515625 884.050781 919.375 895.734375 931.175781 C 907.410156 942.980469 921.203125 952.367188 937.113281 959.320312 C 953.011719 966.277344 970.160156 969.753906 988.546875 969.753906 C 1006.683594 969.753906 1023.703125 966.277344 1039.625 959.320312 C 1055.519531 952.367188 1069.378906 942.917969 1081.183594 930.988281 C 1092.984375 919.0625 1102.304688 905.210938 1109.132812 889.425781 C 1115.960938 873.644531 1119.390625 856.808594 1119.390625 838.917969 C 1119.390625 821.027344 1115.960938 804.195312 1109.132812 788.410156 C 1102.304688 772.628906 1092.984375 758.773438 1081.183594 746.847656 C 1069.378906 734.917969 1055.519531 725.476562 1039.625 718.519531 C 1023.703125 711.5625 1006.683594 708.082031 988.546875 708.082031 Z M 1197.296875 838.917969 C 1197.296875 897.066406 1176.914062 946.269531 1136.160156 986.527344 C 1094.910156 1027.285156 1045.703125 1047.664062 988.546875 1047.664062 C 930.890625 1047.664062 881.683594 1027.285156 840.949219 986.527344 C 800.183594 945.777344 779.808594 896.570312 779.808594 838.917969 C 779.808594 781.269531 800.183594 732.066406 840.949219 691.304688 C 881.683594 650.550781 930.890625 630.171875 988.546875 630.171875 C 1045.703125 630.171875 1094.910156 650.550781 1136.160156 691.304688 C 1156.535156 711.683594 1171.757812 734.175781 1181.824219 758.773438 C 1191.886719 783.378906 1197.035156 810.09375 1197.296875 838.917969 " fill-opacity="1" fill-rule="nonzero"/><g clip-path="url(#c50192d8ef)"><path fill="#ffffff" d="M 208.746094 451.621094 C 219.925781 451.621094 229.179688 455.414062 236.511719 462.992188 C 243.84375 470.578125 247.511719 479.828125 247.511719 490.761719 C 247.511719 501.949219 243.84375 511.207031 236.511719 518.53125 C 229.179688 525.867188 219.925781 529.53125 208.746094 529.53125 C 177.929688 529.53125 162.523438 544.9375 162.523438 575.753906 L 162.523438 753.925781 C 162.523438 789.714844 154.316406 818.046875 137.917969 838.917969 C 154.316406 859.792969 162.523438 888.125 162.523438 923.90625 L 162.523438 1102.082031 C 162.523438 1132.898438 177.929688 1148.3125 208.746094 1148.3125 C 219.925781 1148.3125 229.179688 1151.96875 236.511719 1159.308594 C 243.84375 1166.632812 247.511719 1175.886719 247.511719 1187.078125 C 247.511719 1198.257812 243.84375 1207.585938 236.511719 1215.035156 C 229.179688 1222.484375 219.925781 1226.214844 208.746094 1226.214844 C 125.992188 1226.214844 84.617188 1184.835938 84.617188 1102.082031 L 84.617188 923.90625 C 84.617188 893.097656 69.328125 877.683594 38.765625 877.683594 C 27.585938 877.683594 18.324219 874.019531 10.992188 866.6875 C 3.660156 859.363281 0 850.101562 0 838.917969 C 0 827.738281 3.660156 818.476562 10.992188 811.148438 C 18.324219 803.824219 27.585938 800.152344 38.765625 800.152344 C 69.328125 800.152344 84.617188 784.742188 84.617188 753.925781 L 84.617188 575.753906 C 84.617188 492.996094 125.992188 451.621094 208.746094 451.621094 " fill-opacity="1" fill-rule="nonzero"/></g><g clip-path="url(#1de6bb9871)"><path fill="#ffffff" d="M 1415.359375 575.753906 L 1415.359375 753.925781 C 1415.359375 784.742188 1430.640625 800.152344 1461.199219 800.152344 C 1472.394531 800.152344 1481.644531 803.824219 1488.972656 811.148438 C 1496.308594 818.476562 1499.96875 827.738281 1499.96875 838.917969 C 1499.96875 850.101562 1496.308594 859.363281 1488.972656 866.6875 C 1481.644531 874.019531 1472.394531 877.683594 1461.199219 877.683594 C 1430.640625 877.683594 1415.359375 893.097656 1415.359375 923.90625 L 1415.359375 1102.082031 C 1415.359375 1184.835938 1373.984375 1226.214844 1291.222656 1226.214844 C 1280.042969 1226.214844 1270.785156 1222.484375 1263.453125 1215.035156 C 1256.128906 1207.585938 1252.472656 1198.257812 1252.472656 1187.078125 C 1252.472656 1175.886719 1256.128906 1166.632812 1263.453125 1159.308594 C 1270.785156 1151.96875 1280.042969 1148.3125 1291.222656 1148.3125 C 1322.050781 1148.3125 1337.457031 1132.898438 1337.457031 1102.082031 L 1337.457031 923.90625 C 1337.457031 888.125 1345.652344 859.792969 1362.054688 838.917969 C 1345.652344 818.046875 1337.457031 789.714844 1337.457031 753.925781 L 1337.457031 575.753906 C 1337.457031 544.9375 1322.050781 529.53125 1291.222656 529.53125 C 1280.042969 529.53125 1270.785156 525.867188 1263.453125 518.53125 C 1256.128906 511.207031 1252.472656 501.949219 1252.472656 490.761719 C 1252.472656 479.828125 1256.128906 470.578125 1263.453125 462.992188 C 1270.785156 455.414062 1280.042969 451.621094 1291.222656 451.621094 C 1373.984375 451.621094 1415.359375 492.996094 1415.359375 575.753906 " fill-opacity="1" fill-rule="nonzero"/></g><g clip-path="url(#a878a4d181)"><path fill="#ffffff" d="M 866.664062 482.527344 C 866.664062 488.992188 865.410156 495.015625 862.929688 500.609375 C 860.441406 506.199219 857.15625 511.109375 853.058594 515.332031 C 848.957031 519.558594 844.035156 522.847656 838.328125 525.210938 C 832.605469 527.578125 826.652344 528.75 820.4375 528.75 C 808.996094 528.75 799.191406 524.777344 790.988281 516.824219 C 782.785156 508.875 776.078125 499.117188 770.855469 487.5625 C 765.640625 476.007812 761.847656 464.074219 759.492188 451.777344 C 757.128906 439.476562 755.949219 427.980469 755.949219 417.296875 C 755.949219 373.308594 774.710938 328.832031 812.230469 283.847656 C 818.941406 277.136719 826.523438 273.785156 834.980469 273.785156 C 843.65625 273.785156 851.125 276.890625 857.339844 283.105469 C 863.542969 289.316406 866.664062 296.773438 866.664062 305.472656 C 866.664062 309.699219 865.78125 314.039062 864.054688 318.511719 C 852.859375 345.855469 847.277344 371.820312 847.277344 396.425781 C 847.277344 419.785156 852.359375 442.398438 862.558594 464.265625 C 865.292969 470.476562 866.664062 476.5625 866.664062 482.527344 Z M 744.023438 482.527344 C 744.023438 488.992188 742.777344 495.015625 740.296875 500.609375 C 737.804688 506.199219 734.515625 511.109375 730.414062 515.332031 C 726.320312 519.558594 721.40625 522.847656 715.695312 525.210938 C 709.972656 527.578125 704.011719 528.75 697.804688 528.75 C 686.363281 528.75 676.554688 524.777344 668.355469 516.824219 C 660.15625 508.875 653.445312 499.117188 648.222656 487.5625 C 643.003906 476.007812 639.214844 464.074219 636.851562 451.777344 C 634.492188 439.476562 633.316406 427.980469 633.316406 417.296875 C 633.316406 373.308594 652.070312 328.832031 689.597656 283.847656 C 696.304688 277.136719 703.886719 273.785156 712.335938 273.785156 C 721.03125 273.785156 728.488281 276.890625 734.703125 283.105469 C 740.914062 289.316406 744.023438 296.773438 744.023438 305.472656 C 744.023438 309.699219 743.152344 314.039062 741.414062 318.511719 C 730.234375 345.855469 724.636719 371.820312 724.636719 396.425781 C 724.636719 419.785156 729.730469 442.398438 739.921875 464.265625 C 742.652344 470.476562 744.023438 476.5625 744.023438 482.527344 " fill-opacity="1" fill-rule="nonzero"/></g></svg>